<svg width="119" height="135" viewBox="0 0 119 135" fill="none" xmlns="http://www.w3.org/2000/svg">
<mask id="mask0_8066_28688" style="mask-type:alpha" maskUnits="userSpaceOnUse" x="0" y="0" width="116" height="116">
<circle cx="58" cy="58" r="58" fill="#D9D9D9"/>
</mask>
<g mask="url(#mask0_8066_28688)">
<circle cx="58.5" cy="68.5" r="71.5" fill="url(#paint0_linear_8066_28688)"/>
<rect x="22" y="26" width="78" height="120" rx="13" fill="url(#paint1_linear_8066_28688)"/>
<rect x="18" y="33" width="75" height="110" rx="10" fill="url(#paint2_linear_8066_28688)"/>
</g>
<rect x="26" y="50" width="60" height="6" rx="3" fill="url(#paint3_linear_8066_28688)"/>
<rect x="26" y="65" width="60" height="6" rx="3" fill="url(#paint4_linear_8066_28688)"/>
<rect x="26" y="80" width="33" height="6" rx="3" fill="url(#paint5_linear_8066_28688)"/>
<defs>
<linearGradient id="paint0_linear_8066_28688" x1="58.5" y1="-3" x2="58.895" y2="132.494" gradientUnits="userSpaceOnUse">
<stop stop-color="#5A61E9"/>
<stop offset="1" stop-color="#BABDF5"/>
</linearGradient>
<linearGradient id="paint1_linear_8066_28688" x1="61" y1="26" x2="61" y2="146" gradientUnits="userSpaceOnUse">
<stop stop-color="#A0A6FF"/>
<stop offset="1" stop-color="#949AFF" stop-opacity="0"/>
</linearGradient>
<linearGradient id="paint2_linear_8066_28688" x1="55.5" y1="33" x2="55.5" y2="143" gradientUnits="userSpaceOnUse">
<stop stop-color="white"/>
<stop offset="1" stop-color="#B3B7FE"/>
</linearGradient>
<linearGradient id="paint3_linear_8066_28688" x1="77.0811" y1="53" x2="26" y2="53" gradientUnits="userSpaceOnUse">
<stop stop-color="#D2D4F8"/>
<stop offset="1" stop-color="#A8ACFF"/>
</linearGradient>
<linearGradient id="paint4_linear_8066_28688" x1="77.0811" y1="68" x2="26" y2="68" gradientUnits="userSpaceOnUse">
<stop stop-color="#D2D4F8"/>
<stop offset="1" stop-color="#A8ACFF"/>
</linearGradient>
<linearGradient id="paint5_linear_8066_28688" x1="54.0946" y1="83" x2="26" y2="83" gradientUnits="userSpaceOnUse">
<stop stop-color="#D2D4F8"/>
<stop offset="1" stop-color="#A8ACFF"/>
</linearGradient>
</defs>
</svg>
